<svg width="24" height="24" viewBox="0 0 24 24" fill="none" xmlns="http://www.w3.org/2000/svg">
<path d="M21.97 18.3303C21.97 18.6903 21.89 19.0603 21.72 19.4203C21.55 19.7803 21.33 20.1203 21.04 20.4403C20.55 20.9803 20.01 21.3703 19.4 21.6203C18.8 21.8703 18.15 22.0003 17.45 22.0003C16.43 22.0003 15.34 21.7603 14.19 21.2703C13.04 20.7803 11.89 20.1203 10.75 19.2903C9.6 18.4503 8.51 17.5203 7.47 16.4903C6.44 15.4503 5.51 14.3603 4.68 13.2203C3.86 12.0803 3.2 10.9403 2.72 9.81034C2.24 8.67034 2 7.58034 2 6.54034C2 5.86034 2.12 5.21034 2.36 4.61034C2.6 4.00034 2.98 3.44034 3.51 2.94034C4.15 2.31034 4.85 2.00034 5.59 2.00034C5.87 2.00034 6.15 2.06034 6.4 2.18034C6.66 2.30034 6.89 2.48034 7.07 2.74034L9.39 6.01034C9.57 6.26034 9.7 6.49034 9.79 6.71034C9.88 6.92034 9.93 7.13034 9.93 7.32034C9.93 7.56034 9.86 7.80034 9.72 8.03034C9.59 8.26034 9.4 8.50034 9.16 8.74034L8.4 9.53034C8.29 9.64034 8.24 9.77034 8.24 9.93034C8.24 10.0103 8.25 10.0803 8.27 10.1603C8.3 10.2403 8.33 10.3003 8.35 10.3603C8.53 10.6903 8.84 11.1203 9.28 11.6403C9.73 12.1603 10.21 12.6903 10.73 13.2203C11.27 13.7503 11.79 14.2403 12.32 14.6903C12.84 15.1303 13.27 15.4303 13.61 15.6103C13.66 15.6303 13.72 15.6603 13.79 15.6903C13.87 15.7203 13.95 15.7303 14.04 15.7303C14.21 15.7303 14.34 15.6703 14.45 15.5603L15.21 14.8103C15.46 14.5603 15.7 14.3703 15.93 14.2503C16.16 14.1103 16.39 14.0403 16.64 14.0403C16.83 14.0403 17.03 14.0803 17.25 14.1703C17.47 14.2603 17.7 14.3903 17.95 14.5603L21.26 16.9103C21.52 17.0903 21.7 17.3003 21.81 17.5503C21.91 17.8003 21.97 18.0503 21.97 18.3303Z" stroke="#000929" stroke-width="2" stroke-miterlimit="10"/>
</svg>
